<?xml version="1.0" encoding="UTF-8" standalone="no"?>
<!DOCTYPE svg PUBLIC "-//W3C//DTD SVG 1.1//EN"
 "http://www.w3.org/Graphics/SVG/1.1/DTD/svg11.dtd">
<!-- Generated by graphviz version 2.40.1 (20161225.0304)
 -->
<!-- Title: Tree Pages: 1 -->
<svg width="2033pt" height="622pt"
 viewBox="0.00 0.00 2033.43 622.40" xmlns="http://www.w3.org/2000/svg" xmlns:xlink="http://www.w3.org/1999/xlink">
<g id="graph0" class="graph" transform="scale(1 1) rotate(0) translate(4 618.4)">
<title>Tree</title>
<polygon fill="#ffffff" stroke="transparent" points="-4,4 -4,-618.4 2029.4291,-618.4 2029.4291,4 -4,4"/>
<!-- 0 -->
<g id="node1" class="node">
<title>0</title>
<polygon fill="none" stroke="#000000" points="816.9375,-614.5003 689.6003,-614.5003 689.6003,-539.0997 816.9375,-539.0997 816.9375,-614.5003"/>
<text text-anchor="middle" x="753.2689" y="-597.8" font-family="Helvetica,sans-Serif" font-size="14.00" fill="#000000">女 &lt;= 0.5</text>
<text text-anchor="middle" x="753.2689" y="-581" font-family="Helvetica,sans-Serif" font-size="14.00" fill="#000000">gini = 0.473</text>
<text text-anchor="middle" x="753.2689" y="-564.2" font-family="Helvetica,sans-Serif" font-size="14.00" fill="#000000">samples = 712</text>
<text text-anchor="middle" x="753.2689" y="-547.4" font-family="Helvetica,sans-Serif" font-size="14.00" fill="#000000">value = [439, 273]</text>
</g>
<!-- 1 -->
<g id="node2" class="node">
<title>1</title>
<polygon fill="none" stroke="#000000" points="636.1546,-503.3003 516.3832,-503.3003 516.3832,-427.8997 636.1546,-427.8997 636.1546,-503.3003"/>
<text text-anchor="middle" x="576.2689" y="-486.6" font-family="Helvetica,sans-Serif" font-size="14.00" fill="#000000">Pclass &lt;= 2.5</text>
<text text-anchor="middle" x="576.2689" y="-469.8" font-family="Helvetica,sans-Serif" font-size="14.00" fill="#000000">gini = 0.369</text>
<text text-anchor="middle" x="576.2689" y="-453" font-family="Helvetica,sans-Serif" font-size="14.00" fill="#000000">samples = 250</text>
<text text-anchor="middle" x="576.2689" y="-436.2" font-family="Helvetica,sans-Serif" font-size="14.00" fill="#000000">value = [61, 189]</text>
</g>
<!-- 0&#45;&gt;1 -->
<g id="edge1" class="edge">
<title>0&#45;&gt;1</title>
<path fill="none" stroke="#000000" d="M693.3448,-539.1528C677.7746,-529.3708 660.8824,-518.7583 644.9016,-508.7184"/>
<polygon fill="#000000" stroke="#000000" points="646.4609,-505.5646 636.1313,-503.2085 642.737,-511.4919 646.4609,-505.5646"/>
<text text-anchor="middle" x="641.696" y="-523.3813" font-family="Helvetica,sans-Serif" font-size="14.00" fill="#000000">True</text>
</g>
<!-- 20 -->
<g id="node21" class="node">
<title>20</title>
<polygon fill="none" stroke="#000000" points="924.1546,-503.3003 804.3832,-503.3003 804.3832,-427.8997 924.1546,-427.8997 924.1546,-503.3003"/>
<text text-anchor="middle" x="864.2689" y="-486.6" font-family="Helvetica,sans-Serif" font-size="14.00" fill="#000000">Age &lt;= 13.0</text>
<text text-anchor="middle" x="864.2689" y="-469.8" font-family="Helvetica,sans-Serif" font-size="14.00" fill="#000000">gini = 0.298</text>
<text text-anchor="middle" x="864.2689" y="-453" font-family="Helvetica,sans-Serif" font-size="14.00" fill="#000000">samples = 462</text>
<text text-anchor="middle" x="864.2689" y="-436.2" font-family="Helvetica,sans-Serif" font-size="14.00" fill="#000000">value = [378, 84]</text>
</g>
<!-- 0&#45;&gt;20 -->
<g id="edge20" class="edge">
<title>0&#45;&gt;20</title>
<path fill="none" stroke="#000000" d="M790.8484,-539.1528C800.0703,-529.9142 810.0317,-519.9349 819.5527,-510.3968"/>
<polygon fill="#000000" stroke="#000000" points="822.1404,-512.7586 826.7281,-503.2085 817.1862,-507.8133 822.1404,-512.7586"/>
<text text-anchor="middle" x="826.7506" y="-524.0085" font-family="Helvetica,sans-Serif" font-size="14.00" fill="#000000">False</text>
</g>
<!-- 2 -->
<g id="node3" class="node">
<title>2</title>
<polygon fill="none" stroke="#000000" points="441.3719,-392.1003 329.1659,-392.1003 329.1659,-316.6997 441.3719,-316.6997 441.3719,-392.1003"/>
<text text-anchor="middle" x="385.2689" y="-375.4" font-family="Helvetica,sans-Serif" font-size="14.00" fill="#000000">Age &lt;= 2.5</text>
<text text-anchor="middle" x="385.2689" y="-358.6" font-family="Helvetica,sans-Serif" font-size="14.00" fill="#000000">gini = 0.086</text>
<text text-anchor="middle" x="385.2689" y="-341.8" font-family="Helvetica,sans-Serif" font-size="14.00" fill="#000000">samples = 134</text>
<text text-anchor="middle" x="385.2689" y="-325" font-family="Helvetica,sans-Serif" font-size="14.00" fill="#000000">value = [6, 128]</text>
</g>
<!-- 1&#45;&gt;2 -->
<g id="edge2" class="edge">
<title>1&#45;&gt;2</title>
<path fill="none" stroke="#000000" d="M516.3594,-430.7207C495.3015,-418.4609 471.5496,-404.6325 450.1053,-392.1477"/>
<polygon fill="#000000" stroke="#000000" points="451.7893,-389.0782 441.3862,-387.0714 448.2673,-395.1276 451.7893,-389.0782"/>
</g>
<!-- 13 -->
<g id="node14" class="node">
<title>13</title>
<polygon fill="none" stroke="#000000" points="632.3719,-392.1003 520.1659,-392.1003 520.1659,-316.6997 632.3719,-316.6997 632.3719,-392.1003"/>
<text text-anchor="middle" x="576.2689" y="-375.4" font-family="Helvetica,sans-Serif" font-size="14.00" fill="#000000">Age &lt;= 38.5</text>
<text text-anchor="middle" x="576.2689" y="-358.6" font-family="Helvetica,sans-Serif" font-size="14.00" fill="#000000">gini = 0.499</text>
<text text-anchor="middle" x="576.2689" y="-341.8" font-family="Helvetica,sans-Serif" font-size="14.00" fill="#000000">samples = 116</text>
<text text-anchor="middle" x="576.2689" y="-325" font-family="Helvetica,sans-Serif" font-size="14.00" fill="#000000">value = [55, 61]</text>
</g>
<!-- 1&#45;&gt;13 -->
<g id="edge13" class="edge">
<title>1&#45;&gt;13</title>
<path fill="none" stroke="#000000" d="M576.2689,-427.9528C576.2689,-419.62 576.2689,-410.6845 576.2689,-402.0137"/>
<polygon fill="#000000" stroke="#000000" points="579.769,-402.0084 576.2689,-392.0085 572.769,-402.0085 579.769,-402.0084"/>
</g>
<!-- 3 -->
<g id="node4" class="node">
<title>3</title>
<polygon fill="none" stroke="#000000" points="213.5811,-280.9003 112.9567,-280.9003 112.9567,-205.4997 213.5811,-205.4997 213.5811,-280.9003"/>
<text text-anchor="middle" x="163.2689" y="-264.2" font-family="Helvetica,sans-Serif" font-size="14.00" fill="#000000">Pclass &lt;= 1.5</text>
<text text-anchor="middle" x="163.2689" y="-247.4" font-family="Helvetica,sans-Serif" font-size="14.00" fill="#000000">gini = 0.5</text>
<text text-anchor="middle" x="163.2689" y="-230.6" font-family="Helvetica,sans-Serif" font-size="14.00" fill="#000000">samples = 2</text>
<text text-anchor="middle" x="163.2689" y="-213.8" font-family="Helvetica,sans-Serif" font-size="14.00" fill="#000000">value = [1, 1]</text>
</g>
<!-- 2&#45;&gt;3 -->
<g id="edge3" class="edge">
<title>2&#45;&gt;3</title>
<path fill="none" stroke="#000000" d="M328.9619,-326.1958C296.5547,-309.963 255.8554,-289.5767 222.9038,-273.0712"/>
<polygon fill="#000000" stroke="#000000" points="224.3371,-269.8746 213.8285,-268.5254 221.2021,-276.1334 224.3371,-269.8746"/>
</g>
<!-- 6 -->
<g id="node7" class="node">
<title>6</title>
<polygon fill="none" stroke="#000000" points="441.3719,-280.9003 329.1659,-280.9003 329.1659,-205.4997 441.3719,-205.4997 441.3719,-280.9003"/>
<text text-anchor="middle" x="385.2689" y="-264.2" font-family="Helvetica,sans-Serif" font-size="14.00" fill="#000000">Age &lt;= 27.5</text>
<text text-anchor="middle" x="385.2689" y="-247.4" font-family="Helvetica,sans-Serif" font-size="14.00" fill="#000000">gini = 0.073</text>
<text text-anchor="middle" x="385.2689" y="-230.6" font-family="Helvetica,sans-Serif" font-size="14.00" fill="#000000">samples = 132</text>
<text text-anchor="middle" x="385.2689" y="-213.8" font-family="Helvetica,sans-Serif" font-size="14.00" fill="#000000">value = [5, 127]</text>
</g>
<!-- 2&#45;&gt;6 -->
<g id="edge6" class="edge">
<title>2&#45;&gt;6</title>
<path fill="none" stroke="#000000" d="M385.2689,-316.7528C385.2689,-308.42 385.2689,-299.4845 385.2689,-290.8137"/>
<polygon fill="#000000" stroke="#000000" points="388.769,-290.8084 385.2689,-280.8085 381.769,-290.8085 388.769,-290.8084"/>
</g>
<!-- 4 -->
<g id="node5" class="node">
<title>4</title>
<polygon fill="none" stroke="#000000" points="96.3078,-161.4014 .23,-161.4014 .23,-102.5986 96.3078,-102.5986 96.3078,-161.4014"/>
<text text-anchor="middle" x="48.2689" y="-144.6" font-family="Helvetica,sans-Serif" font-size="14.00" fill="#000000">gini = 0.0</text>
<text text-anchor="middle" x="48.2689" y="-127.8" font-family="Helvetica,sans-Serif" font-size="14.00" fill="#000000">samples = 1</text>
<text text-anchor="middle" x="48.2689" y="-111" font-family="Helvetica,sans-Serif" font-size="14.00" fill="#000000">value = [1, 0]</text>
</g>
<!-- 3&#45;&gt;4 -->
<g id="edge4" class="edge">
<title>3&#45;&gt;4</title>
<path fill="none" stroke="#000000" d="M124.3351,-205.5528C112.032,-193.6561 98.4584,-180.531 86.2245,-168.7014"/>
<polygon fill="#000000" stroke="#000000" points="88.4255,-165.9611 78.8037,-161.5258 83.5596,-170.9933 88.4255,-165.9611"/>
</g>
<!-- 5 -->
<g id="node6" class="node">
<title>5</title>
<polygon fill="none" stroke="#000000" points="211.3078,-161.4014 115.23,-161.4014 115.23,-102.5986 211.3078,-102.5986 211.3078,-161.4014"/>
<text text-anchor="middle" x="163.2689" y="-144.6" font-family="Helvetica,sans-Serif" font-size="14.00" fill="#000000">gini = 0.0</text>
<text text-anchor="middle" x="163.2689" y="-127.8" font-family="Helvetica,sans-Serif" font-size="14.00" fill="#000000">samples = 1</text>
<text text-anchor="middle" x="163.2689" y="-111" font-family="Helvetica,sans-Serif" font-size="14.00" fill="#000000">value = [0, 1]</text>
</g>
<!-- 3&#45;&gt;5 -->
<g id="edge5" class="edge">
<title>3&#45;&gt;5</title>
<path fill="none" stroke="#000000" d="M163.2689,-205.5528C163.2689,-194.6662 163.2689,-182.751 163.2689,-171.7411"/>
<polygon fill="#000000" stroke="#000000" points="166.769,-171.5258 163.2689,-161.5258 159.769,-171.5259 166.769,-171.5258"/>
</g>
<!-- 7 -->
<g id="node8" class="node">
<title>7</title>
<polygon fill="none" stroke="#000000" points="333.5898,-169.7003 228.948,-169.7003 228.948,-94.2997 333.5898,-94.2997 333.5898,-169.7003"/>
<text text-anchor="middle" x="281.2689" y="-153" font-family="Helvetica,sans-Serif" font-size="14.00" fill="#000000">Age &lt;= 24.5</text>
<text text-anchor="middle" x="281.2689" y="-136.2" font-family="Helvetica,sans-Serif" font-size="14.00" fill="#000000">gini = 0.165</text>
<text text-anchor="middle" x="281.2689" y="-119.4" font-family="Helvetica,sans-Serif" font-size="14.00" fill="#000000">samples = 44</text>
<text text-anchor="middle" x="281.2689" y="-102.6" font-family="Helvetica,sans-Serif" font-size="14.00" fill="#000000">value = [4, 40]</text>
</g>
<!-- 6&#45;&gt;7 -->
<g id="edge7" class="edge">
<title>6&#45;&gt;7</title>
<path fill="none" stroke="#000000" d="M350.0592,-205.5528C341.5036,-196.4048 332.2687,-186.5305 323.4277,-177.0774"/>
<polygon fill="#000000" stroke="#000000" points="325.8292,-174.5213 316.4423,-169.6085 320.7167,-179.3028 325.8292,-174.5213"/>
</g>
<!-- 10 -->
<g id="node11" class="node">
<title>10</title>
<polygon fill="none" stroke="#000000" points="455.5898,-169.7003 350.948,-169.7003 350.948,-94.2997 455.5898,-94.2997 455.5898,-169.7003"/>
<text text-anchor="middle" x="403.2689" y="-153" font-family="Helvetica,sans-Serif" font-size="14.00" fill="#000000">Age &lt;= 56.5</text>
<text text-anchor="middle" x="403.2689" y="-136.2" font-family="Helvetica,sans-Serif" font-size="14.00" fill="#000000">gini = 0.022</text>
<text text-anchor="middle" x="403.2689" y="-119.4" font-family="Helvetica,sans-Serif" font-size="14.00" fill="#000000">samples = 88</text>
<text text-anchor="middle" x="403.2689" y="-102.6" font-family="Helvetica,sans-Serif" font-size="14.00" fill="#000000">value = [1, 87]</text>
</g>
<!-- 6&#45;&gt;10 -->
<g id="edge10" class="edge">
<title>6&#45;&gt;10</title>
<path fill="none" stroke="#000000" d="M391.3629,-205.5528C392.7117,-197.22 394.1581,-188.2845 395.5616,-179.6137"/>
<polygon fill="#000000" stroke="#000000" points="399.0382,-180.0393 397.1812,-169.6085 392.1282,-178.9207 399.0382,-180.0393"/>
</g>
<!-- 8 -->
<g id="node9" class="node">
<title>8</title>
<polygon fill="none" stroke="#000000" points="215.5898,-58.6014 110.948,-58.6014 110.948,.2014 215.5898,.2014 215.5898,-58.6014"/>
<text text-anchor="middle" x="163.2689" y="-41.8" font-family="Helvetica,sans-Serif" font-size="14.00" fill="#000000">gini = 0.054</text>
<text text-anchor="middle" x="163.2689" y="-25" font-family="Helvetica,sans-Serif" font-size="14.00" fill="#000000">samples = 36</text>
<text text-anchor="middle" x="163.2689" y="-8.2" font-family="Helvetica,sans-Serif" font-size="14.00" fill="#000000">value = [1, 35]</text>
</g>
<!-- 7&#45;&gt;8 -->
<g id="edge8" class="edge">
<title>7&#45;&gt;8</title>
<path fill="none" stroke="#000000" d="M238.0001,-94.3048C227.0967,-84.806 215.4201,-74.6335 204.6139,-65.2192"/>
<polygon fill="#000000" stroke="#000000" points="206.7617,-62.4484 196.9226,-58.5186 202.1635,-67.7264 206.7617,-62.4484"/>
</g>
<!-- 9 -->
<g id="node10" class="node">
<title>9</title>
<polygon fill="none" stroke="#000000" points="329.3078,-58.6014 233.23,-58.6014 233.23,.2014 329.3078,.2014 329.3078,-58.6014"/>
<text text-anchor="middle" x="281.2689" y="-41.8" font-family="Helvetica,sans-Serif" font-size="14.00" fill="#000000">gini = 0.469</text>
<text text-anchor="middle" x="281.2689" y="-25" font-family="Helvetica,sans-Serif" font-size="14.00" fill="#000000">samples = 8</text>
<text text-anchor="middle" x="281.2689" y="-8.2" font-family="Helvetica,sans-Serif" font-size="14.00" fill="#000000">value = [3, 5]</text>
</g>
<!-- 7&#45;&gt;9 -->
<g id="edge9" class="edge">
<title>7&#45;&gt;9</title>
<path fill="none" stroke="#000000" d="M281.2689,-94.3048C281.2689,-85.9126 281.2689,-76.9946 281.2689,-68.5382"/>
<polygon fill="#000000" stroke="#000000" points="284.769,-68.5186 281.2689,-58.5186 277.769,-68.5187 284.769,-68.5186"/>
</g>
<!-- 11 -->
<g id="node12" class="node">
<title>11</title>
<polygon fill="none" stroke="#000000" points="451.5898,-58.6014 346.948,-58.6014 346.948,.2014 451.5898,.2014 451.5898,-58.6014"/>
<text text-anchor="middle" x="399.2689" y="-41.8" font-family="Helvetica,sans-Serif" font-size="14.00" fill="#000000">gini = 0.0</text>
<text text-anchor="middle" x="399.2689" y="-25" font-family="Helvetica,sans-Serif" font-size="14.00" fill="#000000">samples = 82</text>
<text text-anchor="middle" x="399.2689" y="-8.2" font-family="Helvetica,sans-Serif" font-size="14.00" fill="#000000">value = [0, 82]</text>
</g>
<!-- 10&#45;&gt;11 -->
<g id="edge11" class="edge">
<title>10&#45;&gt;11</title>
<path fill="none" stroke="#000000" d="M401.8022,-94.3048C401.4756,-85.9126 401.1286,-76.9946 400.7996,-68.5382"/>
<polygon fill="#000000" stroke="#000000" points="404.296,-68.375 400.4097,-58.5186 397.3013,-68.6472 404.296,-68.375"/>
</g>
<!-- 12 -->
<g id="node13" class="node">
<title>12</title>
<polygon fill="none" stroke="#000000" points="565.3078,-58.6014 469.23,-58.6014 469.23,.2014 565.3078,.2014 565.3078,-58.6014"/>
<text text-anchor="middle" x="517.2689" y="-41.8" font-family="Helvetica,sans-Serif" font-size="14.00" fill="#000000">gini = 0.278</text>
<text text-anchor="middle" x="517.2689" y="-25" font-family="Helvetica,sans-Serif" font-size="14.00" fill="#000000">samples = 6</text>
<text text-anchor="middle" x="517.2689" y="-8.2" font-family="Helvetica,sans-Serif" font-size="14.00" fill="#000000">value = [1, 5]</text>
</g>
<!-- 10&#45;&gt;12 -->
<g id="edge12" class="edge">
<title>10&#45;&gt;12</title>
<path fill="none" stroke="#000000" d="M445.071,-94.3048C455.6047,-84.806 466.8855,-74.6335 477.3254,-65.2192"/>
<polygon fill="#000000" stroke="#000000" points="479.6734,-67.8148 484.756,-58.5186 474.9856,-62.6162 479.6734,-67.8148"/>
</g>
<!-- 14 -->
<g id="node15" class="node">
<title>14</title>
<polygon fill="none" stroke="#000000" points="601.3719,-280.9003 489.1659,-280.9003 489.1659,-205.4997 601.3719,-205.4997 601.3719,-280.9003"/>
<text text-anchor="middle" x="545.2689" y="-264.2" font-family="Helvetica,sans-Serif" font-size="14.00" fill="#000000">Age &lt;= 1.5</text>
<text text-anchor="middle" x="545.2689" y="-247.4" font-family="Helvetica,sans-Serif" font-size="14.00" fill="#000000">gini = 0.492</text>
<text text-anchor="middle" x="545.2689" y="-230.6" font-family="Helvetica,sans-Serif" font-size="14.00" fill="#000000">samples = 108</text>
<text text-anchor="middle" x="545.2689" y="-213.8" font-family="Helvetica,sans-Serif" font-size="14.00" fill="#000000">value = [47, 61]</text>
</g>
<!-- 13&#45;&gt;14 -->
<g id="edge14" class="edge">
<title>13&#45;&gt;14</title>
<path fill="none" stroke="#000000" d="M565.7737,-316.7528C563.4255,-308.3294 560.9056,-299.2902 558.4637,-290.5311"/>
<polygon fill="#000000" stroke="#000000" points="561.8102,-289.5013 555.7533,-280.8085 555.0673,-291.3811 561.8102,-289.5013"/>
</g>
<!-- 19 -->
<g id="node20" class="node">
<title>19</title>
<polygon fill="none" stroke="#000000" points="715.3078,-272.6014 619.23,-272.6014 619.23,-213.7986 715.3078,-213.7986 715.3078,-272.6014"/>
<text text-anchor="middle" x="667.2689" y="-255.8" font-family="Helvetica,sans-Serif" font-size="14.00" fill="#000000">gini = 0.0</text>
<text text-anchor="middle" x="667.2689" y="-239" font-family="Helvetica,sans-Serif" font-size="14.00" fill="#000000">samples = 8</text>
<text text-anchor="middle" x="667.2689" y="-222.2" font-family="Helvetica,sans-Serif" font-size="14.00" fill="#000000">value = [8, 0]</text>
</g>
<!-- 13&#45;&gt;19 -->
<g id="edge19" class="edge">
<title>13&#45;&gt;19</title>
<path fill="none" stroke="#000000" d="M607.0773,-316.7528C616.6292,-305.0806 627.1488,-292.2259 636.6854,-280.5724"/>
<polygon fill="#000000" stroke="#000000" points="639.482,-282.6814 643.1066,-272.7258 634.0648,-278.2482 639.482,-282.6814"/>
</g>
<!-- 15 -->
<g id="node16" class="node">
<title>15</title>
<polygon fill="none" stroke="#000000" points="575.3078,-161.4014 479.23,-161.4014 479.23,-102.5986 575.3078,-102.5986 575.3078,-161.4014"/>
<text text-anchor="middle" x="527.2689" y="-144.6" font-family="Helvetica,sans-Serif" font-size="14.00" fill="#000000">gini = 0.0</text>
<text text-anchor="middle" x="527.2689" y="-127.8" font-family="Helvetica,sans-Serif" font-size="14.00" fill="#000000">samples = 4</text>
<text text-anchor="middle" x="527.2689" y="-111" font-family="Helvetica,sans-Serif" font-size="14.00" fill="#000000">value = [0, 4]</text>
</g>
<!-- 14&#45;&gt;15 -->
<g id="edge15" class="edge">
<title>14&#45;&gt;15</title>
<path fill="none" stroke="#000000" d="M539.1749,-205.5528C537.3945,-194.554 535.4442,-182.5052 533.6467,-171.4009"/>
<polygon fill="#000000" stroke="#000000" points="537.1013,-170.838 532.0483,-161.5258 530.1912,-171.9566 537.1013,-170.838"/>
</g>
<!-- 16 -->
<g id="node17" class="node">
<title>16</title>
<polygon fill="none" stroke="#000000" points="705.3719,-169.7003 593.1659,-169.7003 593.1659,-94.2997 705.3719,-94.2997 705.3719,-169.7003"/>
<text text-anchor="middle" x="649.2689" y="-153" font-family="Helvetica,sans-Serif" font-size="14.00" fill="#000000">Age &lt;= 32.5</text>
<text text-anchor="middle" x="649.2689" y="-136.2" font-family="Helvetica,sans-Serif" font-size="14.00" fill="#000000">gini = 0.495</text>
<text text-anchor="middle" x="649.2689" y="-119.4" font-family="Helvetica,sans-Serif" font-size="14.00" fill="#000000">samples = 104</text>
<text text-anchor="middle" x="649.2689" y="-102.6" font-family="Helvetica,sans-Serif" font-size="14.00" fill="#000000">value = [47, 57]</text>
</g>
<!-- 14&#45;&gt;16 -->
<g id="edge16" class="edge">
<title>14&#45;&gt;16</title>
<path fill="none" stroke="#000000" d="M580.4786,-205.5528C589.0342,-196.4048 598.2691,-186.5305 607.1101,-177.0774"/>
<polygon fill="#000000" stroke="#000000" points="609.8211,-179.3028 614.0955,-169.6085 604.7086,-174.5213 609.8211,-179.3028"/>
</g>
<!-- 17 -->
<g id="node18" class="node">
<title>17</title>
<polygon fill="none" stroke="#000000" points="695.3719,-58.6014 583.1659,-58.6014 583.1659,.2014 695.3719,.2014 695.3719,-58.6014"/>
<text text-anchor="middle" x="639.2689" y="-41.8" font-family="Helvetica,sans-Serif" font-size="14.00" fill="#000000">gini = 0.498</text>
<text text-anchor="middle" x="639.2689" y="-25" font-family="Helvetica,sans-Serif" font-size="14.00" fill="#000000">samples = 100</text>
<text text-anchor="middle" x="639.2689" y="-8.2" font-family="Helvetica,sans-Serif" font-size="14.00" fill="#000000">value = [47, 53]</text>
</g>
<!-- 16&#45;&gt;17 -->
<g id="edge17" class="edge">
<title>16&#45;&gt;17</title>
<path fill="none" stroke="#000000" d="M645.6021,-94.3048C644.7857,-85.9126 643.9182,-76.9946 643.0956,-68.5382"/>
<polygon fill="#000000" stroke="#000000" points="646.5727,-68.1328 642.1209,-58.5186 639.6056,-68.8106 646.5727,-68.1328"/>
</g>
<!-- 18 -->
<g id="node19" class="node">
<title>18</title>
<polygon fill="none" stroke="#000000" points="809.3078,-58.6014 713.23,-58.6014 713.23,.2014 809.3078,.2014 809.3078,-58.6014"/>
<text text-anchor="middle" x="761.2689" y="-41.8" font-family="Helvetica,sans-Serif" font-size="14.00" fill="#000000">gini = 0.0</text>
<text text-anchor="middle" x="761.2689" y="-25" font-family="Helvetica,sans-Serif" font-size="14.00" fill="#000000">samples = 4</text>
<text text-anchor="middle" x="761.2689" y="-8.2" font-family="Helvetica,sans-Serif" font-size="14.00" fill="#000000">value = [0, 4]</text>
</g>
<!-- 16&#45;&gt;18 -->
<g id="edge18" class="edge">
<title>16&#45;&gt;18</title>
<path fill="none" stroke="#000000" d="M690.3376,-94.3048C700.5861,-84.8982 711.5543,-74.8309 721.7272,-65.4936"/>
<polygon fill="#000000" stroke="#000000" points="724.3259,-67.8592 729.3264,-58.5186 719.5925,-62.7022 724.3259,-67.8592"/>
</g>
<!-- 21 -->
<g id="node22" class="node">
<title>21</title>
<polygon fill="none" stroke="#000000" points="920.3719,-392.1003 808.1659,-392.1003 808.1659,-316.6997 920.3719,-316.6997 920.3719,-392.1003"/>
<text text-anchor="middle" x="864.2689" y="-375.4" font-family="Helvetica,sans-Serif" font-size="14.00" fill="#000000">Pclass &lt;= 2.5</text>
<text text-anchor="middle" x="864.2689" y="-358.6" font-family="Helvetica,sans-Serif" font-size="14.00" fill="#000000">gini = 0.464</text>
<text text-anchor="middle" x="864.2689" y="-341.8" font-family="Helvetica,sans-Serif" font-size="14.00" fill="#000000">samples = 30</text>
<text text-anchor="middle" x="864.2689" y="-325" font-family="Helvetica,sans-Serif" font-size="14.00" fill="#000000">value = [11, 19]</text>
</g>
<!-- 20&#45;&gt;21 -->
<g id="edge21" class="edge">
<title>20&#45;&gt;21</title>
<path fill="none" stroke="#000000" d="M864.2689,-427.9528C864.2689,-419.62 864.2689,-410.6845 864.2689,-402.0137"/>
<polygon fill="#000000" stroke="#000000" points="867.769,-402.0084 864.2689,-392.0085 860.769,-402.0085 867.769,-402.0084"/>
</g>
<!-- 28 -->
<g id="node29" class="node">
<title>28</title>
<polygon fill="none" stroke="#000000" points="1360.1546,-392.1003 1240.3832,-392.1003 1240.3832,-316.6997 1360.1546,-316.6997 1360.1546,-392.1003"/>
<text text-anchor="middle" x="1300.2689" y="-375.4" font-family="Helvetica,sans-Serif" font-size="14.00" fill="#000000">Pclass &lt;= 1.5</text>
<text text-anchor="middle" x="1300.2689" y="-358.6" font-family="Helvetica,sans-Serif" font-size="14.00" fill="#000000">gini = 0.256</text>
<text text-anchor="middle" x="1300.2689" y="-341.8" font-family="Helvetica,sans-Serif" font-size="14.00" fill="#000000">samples = 432</text>
<text text-anchor="middle" x="1300.2689" y="-325" font-family="Helvetica,sans-Serif" font-size="14.00" fill="#000000">value = [367, 65]</text>
</g>
<!-- 20&#45;&gt;28 -->
<g id="edge28" class="edge">
<title>20&#45;&gt;28</title>
<path fill="none" stroke="#000000" d="M924.4351,-450.2549C1004.5438,-429.8235 1145.9397,-393.761 1230.5901,-372.1713"/>
<polygon fill="#000000" stroke="#000000" points="1231.546,-375.5396 1240.3708,-369.6768 1229.816,-368.7568 1231.546,-375.5396"/>
</g>
<!-- 22 -->
<g id="node23" class="node">
<title>22</title>
<polygon fill="none" stroke="#000000" points="855.5898,-272.6014 750.948,-272.6014 750.948,-213.7986 855.5898,-213.7986 855.5898,-272.6014"/>
<text text-anchor="middle" x="803.2689" y="-255.8" font-family="Helvetica,sans-Serif" font-size="14.00" fill="#000000">gini = 0.0</text>
<text text-anchor="middle" x="803.2689" y="-239" font-family="Helvetica,sans-Serif" font-size="14.00" fill="#000000">samples = 11</text>
<text text-anchor="middle" x="803.2689" y="-222.2" font-family="Helvetica,sans-Serif" font-size="14.00" fill="#000000">value = [0, 11]</text>
</g>
<!-- 21&#45;&gt;22 -->
<g id="edge22" class="edge">
<title>21&#45;&gt;22</title>
<path fill="none" stroke="#000000" d="M843.6171,-316.7528C837.3989,-305.4173 830.5689,-292.9665 824.3248,-281.5838"/>
<polygon fill="#000000" stroke="#000000" points="827.3438,-279.81 819.4656,-272.7258 821.2066,-283.1767 827.3438,-279.81"/>
</g>
<!-- 23 -->
<g id="node24" class="node">
<title>23</title>
<polygon fill="none" stroke="#000000" points="977.5898,-280.9003 872.948,-280.9003 872.948,-205.4997 977.5898,-205.4997 977.5898,-280.9003"/>
<text text-anchor="middle" x="925.2689" y="-264.2" font-family="Helvetica,sans-Serif" font-size="14.00" fill="#000000">Age &lt;= 0.71</text>
<text text-anchor="middle" x="925.2689" y="-247.4" font-family="Helvetica,sans-Serif" font-size="14.00" fill="#000000">gini = 0.488</text>
<text text-anchor="middle" x="925.2689" y="-230.6" font-family="Helvetica,sans-Serif" font-size="14.00" fill="#000000">samples = 19</text>
<text text-anchor="middle" x="925.2689" y="-213.8" font-family="Helvetica,sans-Serif" font-size="14.00" fill="#000000">value = [11, 8]</text>
</g>
<!-- 21&#45;&gt;23 -->
<g id="edge23" class="edge">
<title>21&#45;&gt;23</title>
<path fill="none" stroke="#000000" d="M884.9207,-316.7528C889.6905,-308.0577 894.8202,-298.7064 899.7694,-289.6843"/>
<polygon fill="#000000" stroke="#000000" points="902.8974,-291.2593 904.6384,-280.8085 896.7602,-287.8926 902.8974,-291.2593"/>
</g>
<!-- 24 -->
<g id="node25" class="node">
<title>24</title>
<polygon fill="none" stroke="#000000" points="909.3078,-161.4014 813.23,-161.4014 813.23,-102.5986 909.3078,-102.5986 909.3078,-161.4014"/>
<text text-anchor="middle" x="861.2689" y="-144.6" font-family="Helvetica,sans-Serif" font-size="14.00" fill="#000000">gini = 0.0</text>
<text text-anchor="middle" x="861.2689" y="-127.8" font-family="Helvetica,sans-Serif" font-size="14.00" fill="#000000">samples = 1</text>
<text text-anchor="middle" x="861.2689" y="-111" font-family="Helvetica,sans-Serif" font-size="14.00" fill="#000000">value = [0, 1]</text>
</g>
<!-- 23&#45;&gt;24 -->
<g id="edge24" class="edge">
<title>23&#45;&gt;24</title>
<path fill="none" stroke="#000000" d="M903.6014,-205.5528C897.0774,-194.2173 889.9115,-181.7665 883.3603,-170.3838"/>
<polygon fill="#000000" stroke="#000000" points="886.2839,-168.447 878.2622,-161.5258 880.217,-171.9388 886.2839,-168.447"/>
</g>
<!-- 25 -->
<g id="node26" class="node">
<title>25</title>
<polygon fill="none" stroke="#000000" points="1031.5898,-169.7003 926.948,-169.7003 926.948,-94.2997 1031.5898,-94.2997 1031.5898,-169.7003"/>
<text text-anchor="middle" x="979.2689" y="-153" font-family="Helvetica,sans-Serif" font-size="14.00" fill="#000000">Age &lt;= 11.5</text>
<text text-anchor="middle" x="979.2689" y="-136.2" font-family="Helvetica,sans-Serif" font-size="14.00" fill="#000000">gini = 0.475</text>
<text text-anchor="middle" x="979.2689" y="-119.4" font-family="Helvetica,sans-Serif" font-size="14.00" fill="#000000">samples = 18</text>
<text text-anchor="middle" x="979.2689" y="-102.6" font-family="Helvetica,sans-Serif" font-size="14.00" fill="#000000">value = [11, 7]</text>
</g>
<!-- 23&#45;&gt;25 -->
<g id="edge25" class="edge">
<title>23&#45;&gt;25</title>
<path fill="none" stroke="#000000" d="M943.5508,-205.5528C947.7293,-196.9483 952.2198,-187.7011 956.5586,-178.7664"/>
<polygon fill="#000000" stroke="#000000" points="959.7859,-180.1329 961.0058,-169.6085 953.489,-177.075 959.7859,-180.1329"/>
</g>
<!-- 26 -->
<g id="node27" class="node">
<title>26</title>
<polygon fill="none" stroke="#000000" points="931.5898,-58.6014 826.948,-58.6014 826.948,.2014 931.5898,.2014 931.5898,-58.6014"/>
<text text-anchor="middle" x="879.2689" y="-41.8" font-family="Helvetica,sans-Serif" font-size="14.00" fill="#000000">gini = 0.457</text>
<text text-anchor="middle" x="879.2689" y="-25" font-family="Helvetica,sans-Serif" font-size="14.00" fill="#000000">samples = 17</text>
<text text-anchor="middle" x="879.2689" y="-8.2" font-family="Helvetica,sans-Serif" font-size="14.00" fill="#000000">value = [11, 6]</text>
</g>
<!-- 25&#45;&gt;26 -->
<g id="edge26" class="edge">
<title>25&#45;&gt;26</title>
<path fill="none" stroke="#000000" d="M942.6004,-94.3048C933.5397,-84.9904 923.8489,-75.0283 914.8413,-65.7684"/>
<polygon fill="#000000" stroke="#000000" points="917.2706,-63.2462 907.789,-58.5186 912.253,-68.1272 917.2706,-63.2462"/>
</g>
<!-- 27 -->
<g id="node28" class="node">
<title>27</title>
<polygon fill="none" stroke="#000000" points="1045.3078,-58.6014 949.23,-58.6014 949.23,.2014 1045.3078,.2014 1045.3078,-58.6014"/>
<text text-anchor="middle" x="997.2689" y="-41.8" font-family="Helvetica,sans-Serif" font-size="14.00" fill="#000000">gini = 0.0</text>
<text text-anchor="middle" x="997.2689" y="-25" font-family="Helvetica,sans-Serif" font-size="14.00" fill="#000000">samples = 1</text>
<text text-anchor="middle" x="997.2689" y="-8.2" font-family="Helvetica,sans-Serif" font-size="14.00" fill="#000000">value = [0, 1]</text>
</g>
<!-- 25&#45;&gt;27 -->
<g id="edge27" class="edge">
<title>25&#45;&gt;27</title>
<path fill="none" stroke="#000000" d="M985.8692,-94.3048C987.3387,-85.9126 988.9002,-76.9946 990.3809,-68.5382"/>
<polygon fill="#000000" stroke="#000000" points="993.858,-68.9725 992.1353,-58.5186 986.9629,-67.7651 993.858,-68.9725"/>
</g>
<!-- 29 -->
<g id="node30" class="node">
<title>29</title>
<polygon fill="none" stroke="#000000" points="1356.3719,-280.9003 1244.1659,-280.9003 1244.1659,-205.4997 1356.3719,-205.4997 1356.3719,-280.9003"/>
<text text-anchor="middle" x="1300.2689" y="-264.2" font-family="Helvetica,sans-Serif" font-size="14.00" fill="#000000">Age &lt;= 51.5</text>
<text text-anchor="middle" x="1300.2689" y="-247.4" font-family="Helvetica,sans-Serif" font-size="14.00" fill="#000000">gini = 0.424</text>
<text text-anchor="middle" x="1300.2689" y="-230.6" font-family="Helvetica,sans-Serif" font-size="14.00" fill="#000000">samples = 95</text>
<text text-anchor="middle" x="1300.2689" y="-213.8" font-family="Helvetica,sans-Serif" font-size="14.00" fill="#000000">value = [66, 29]</text>
</g>
<!-- 28&#45;&gt;29 -->
<g id="edge29" class="edge">
<title>28&#45;&gt;29</title>
<path fill="none" stroke="#000000" d="M1300.2689,-316.7528C1300.2689,-308.42 1300.2689,-299.4845 1300.2689,-290.8137"/>
<polygon fill="#000000" stroke="#000000" points="1303.769,-290.8084 1300.2689,-280.8085 1296.769,-290.8085 1303.769,-290.8084"/>
</g>
<!-- 36 -->
<g id="node37" class="node">
<title>36</title>
<polygon fill="none" stroke="#000000" points="1722.1546,-280.9003 1602.3832,-280.9003 1602.3832,-205.4997 1722.1546,-205.4997 1722.1546,-280.9003"/>
<text text-anchor="middle" x="1662.2689" y="-264.2" font-family="Helvetica,sans-Serif" font-size="14.00" fill="#000000">Age &lt;= 32.25</text>
<text text-anchor="middle" x="1662.2689" y="-247.4" font-family="Helvetica,sans-Serif" font-size="14.00" fill="#000000">gini = 0.191</text>
<text text-anchor="middle" x="1662.2689" y="-230.6" font-family="Helvetica,sans-Serif" font-size="14.00" fill="#000000">samples = 337</text>
<text text-anchor="middle" x="1662.2689" y="-213.8" font-family="Helvetica,sans-Serif" font-size="14.00" fill="#000000">value = [301, 36]</text>
</g>
<!-- 28&#45;&gt;36 -->
<g id="edge36" class="edge">
<title>28&#45;&gt;36</title>
<path fill="none" stroke="#000000" d="M1360.4522,-335.9128C1424.3585,-316.2819 1525.2452,-285.2913 1592.5631,-264.6124"/>
<polygon fill="#000000" stroke="#000000" points="1593.7119,-267.921 1602.2433,-261.6388 1591.6563,-261.2296 1593.7119,-267.921"/>
</g>
<!-- 30 -->
<g id="node31" class="node">
<title>30</title>
<polygon fill="none" stroke="#000000" points="1293.3719,-169.7003 1181.1659,-169.7003 1181.1659,-94.2997 1293.3719,-94.2997 1293.3719,-169.7003"/>
<text text-anchor="middle" x="1237.2689" y="-153" font-family="Helvetica,sans-Serif" font-size="14.00" fill="#000000">Age &lt;= 47.5</text>
<text text-anchor="middle" x="1237.2689" y="-136.2" font-family="Helvetica,sans-Serif" font-size="14.00" fill="#000000">gini = 0.456</text>
<text text-anchor="middle" x="1237.2689" y="-119.4" font-family="Helvetica,sans-Serif" font-size="14.00" fill="#000000">samples = 74</text>
<text text-anchor="middle" x="1237.2689" y="-102.6" font-family="Helvetica,sans-Serif" font-size="14.00" fill="#000000">value = [48, 26]</text>
</g>
<!-- 29&#45;&gt;30 -->
<g id="edge30" class="edge">
<title>29&#45;&gt;30</title>
<path fill="none" stroke="#000000" d="M1278.94,-205.5528C1274.0138,-196.8577 1268.7159,-187.5064 1263.6044,-178.4843"/>
<polygon fill="#000000" stroke="#000000" points="1266.5505,-176.5839 1258.5759,-169.6085 1260.46,-180.0344 1266.5505,-176.5839"/>
</g>
<!-- 33 -->
<g id="node34" class="node">
<title>33</title>
<polygon fill="none" stroke="#000000" points="1415.5898,-169.7003 1310.948,-169.7003 1310.948,-94.2997 1415.5898,-94.2997 1415.5898,-169.7003"/>
<text text-anchor="middle" x="1363.2689" y="-153" font-family="Helvetica,sans-Serif" font-size="14.00" fill="#000000">Age &lt;= 75.5</text>
<text text-anchor="middle" x="1363.2689" y="-136.2" font-family="Helvetica,sans-Serif" font-size="14.00" fill="#000000">gini = 0.245</text>
<text text-anchor="middle" x="1363.2689" y="-119.4" font-family="Helvetica,sans-Serif" font-size="14.00" fill="#000000">samples = 21</text>
<text text-anchor="middle" x="1363.2689" y="-102.6" font-family="Helvetica,sans-Serif" font-size="14.00" fill="#000000">value = [18, 3]</text>
</g>
<!-- 29&#45;&gt;33 -->
<g id="edge33" class="edge">
<title>29&#45;&gt;33</title>
<path fill="none" stroke="#000000" d="M1321.5978,-205.5528C1326.524,-196.8577 1331.8219,-187.5064 1336.9334,-178.4843"/>
<polygon fill="#000000" stroke="#000000" points="1340.0778,-180.0344 1341.9619,-169.6085 1333.9873,-176.5839 1340.0778,-180.0344"/>
</g>
<!-- 31 -->
<g id="node32" class="node">
<title>31</title>
<polygon fill="none" stroke="#000000" points="1175.3719,-58.6014 1063.1659,-58.6014 1063.1659,.2014 1175.3719,.2014 1175.3719,-58.6014"/>
<text text-anchor="middle" x="1119.2689" y="-41.8" font-family="Helvetica,sans-Serif" font-size="14.00" fill="#000000">gini = 0.415</text>
<text text-anchor="middle" x="1119.2689" y="-25" font-family="Helvetica,sans-Serif" font-size="14.00" fill="#000000">samples = 68</text>
<text text-anchor="middle" x="1119.2689" y="-8.2" font-family="Helvetica,sans-Serif" font-size="14.00" fill="#000000">value = [48, 20]</text>
</g>
<!-- 30&#45;&gt;31 -->
<g id="edge31" class="edge">
<title>30&#45;&gt;31</title>
<path fill="none" stroke="#000000" d="M1194.0001,-94.3048C1183.0967,-84.806 1171.4201,-74.6335 1160.6139,-65.2192"/>
<polygon fill="#000000" stroke="#000000" points="1162.7617,-62.4484 1152.9226,-58.5186 1158.1635,-67.7264 1162.7617,-62.4484"/>
</g>
<!-- 32 -->
<g id="node33" class="node">
<title>32</title>
<polygon fill="none" stroke="#000000" points="1289.3078,-58.6014 1193.23,-58.6014 1193.23,.2014 1289.3078,.2014 1289.3078,-58.6014"/>
<text text-anchor="middle" x="1241.2689" y="-41.8" font-family="Helvetica,sans-Serif" font-size="14.00" fill="#000000">gini = 0.0</text>
<text text-anchor="middle" x="1241.2689" y="-25" font-family="Helvetica,sans-Serif" font-size="14.00" fill="#000000">samples = 6</text>
<text text-anchor="middle" x="1241.2689" y="-8.2" font-family="Helvetica,sans-Serif" font-size="14.00" fill="#000000">value = [0, 6]</text>
</g>
<!-- 30&#45;&gt;32 -->
<g id="edge32" class="edge">
<title>30&#45;&gt;32</title>
<path fill="none" stroke="#000000" d="M1238.7356,-94.3048C1239.0622,-85.9126 1239.4092,-76.9946 1239.7382,-68.5382"/>
<polygon fill="#000000" stroke="#000000" points="1243.2365,-68.6472 1240.1281,-58.5186 1236.2418,-68.375 1243.2365,-68.6472"/>
</g>
<!-- 34 -->
<g id="node35" class="node">
<title>34</title>
<polygon fill="none" stroke="#000000" points="1411.5898,-58.6014 1306.948,-58.6014 1306.948,.2014 1411.5898,.2014 1411.5898,-58.6014"/>
<text text-anchor="middle" x="1359.2689" y="-41.8" font-family="Helvetica,sans-Serif" font-size="14.00" fill="#000000">gini = 0.18</text>
<text text-anchor="middle" x="1359.2689" y="-25" font-family="Helvetica,sans-Serif" font-size="14.00" fill="#000000">samples = 20</text>
<text text-anchor="middle" x="1359.2689" y="-8.2" font-family="Helvetica,sans-Serif" font-size="14.00" fill="#000000">value = [18, 2]</text>
</g>
<!-- 33&#45;&gt;34 -->
<g id="edge34" class="edge">
<title>33&#45;&gt;34</title>
<path fill="none" stroke="#000000" d="M1361.8022,-94.3048C1361.4756,-85.9126 1361.1286,-76.9946 1360.7996,-68.5382"/>
<polygon fill="#000000" stroke="#000000" points="1364.296,-68.375 1360.4097,-58.5186 1357.3013,-68.6472 1364.296,-68.375"/>
</g>
<!-- 35 -->
<g id="node36" class="node">
<title>35</title>
<polygon fill="none" stroke="#000000" points="1525.3078,-58.6014 1429.23,-58.6014 1429.23,.2014 1525.3078,.2014 1525.3078,-58.6014"/>
<text text-anchor="middle" x="1477.2689" y="-41.8" font-family="Helvetica,sans-Serif" font-size="14.00" fill="#000000">gini = 0.0</text>
<text text-anchor="middle" x="1477.2689" y="-25" font-family="Helvetica,sans-Serif" font-size="14.00" fill="#000000">samples = 1</text>
<text text-anchor="middle" x="1477.2689" y="-8.2" font-family="Helvetica,sans-Serif" font-size="14.00" fill="#000000">value = [0, 1]</text>
</g>
<!-- 33&#45;&gt;35 -->
<g id="edge35" class="edge">
<title>33&#45;&gt;35</title>
<path fill="none" stroke="#000000" d="M1405.071,-94.3048C1415.6047,-84.806 1426.8855,-74.6335 1437.3254,-65.2192"/>
<polygon fill="#000000" stroke="#000000" points="1439.6734,-67.8148 1444.756,-58.5186 1434.9856,-62.6162 1439.6734,-67.8148"/>
</g>
<!-- 37 -->
<g id="node38" class="node">
<title>37</title>
<polygon fill="none" stroke="#000000" points="1722.1546,-169.7003 1602.3832,-169.7003 1602.3832,-94.2997 1722.1546,-94.2997 1722.1546,-169.7003"/>
<text text-anchor="middle" x="1662.2689" y="-153" font-family="Helvetica,sans-Serif" font-size="14.00" fill="#000000">Age &lt;= 31.5</text>
<text text-anchor="middle" x="1662.2689" y="-136.2" font-family="Helvetica,sans-Serif" font-size="14.00" fill="#000000">gini = 0.214</text>
<text text-anchor="middle" x="1662.2689" y="-119.4" font-family="Helvetica,sans-Serif" font-size="14.00" fill="#000000">samples = 254</text>
<text text-anchor="middle" x="1662.2689" y="-102.6" font-family="Helvetica,sans-Serif" font-size="14.00" fill="#000000">value = [223, 31]</text>
</g>
<!-- 36&#45;&gt;37 -->
<g id="edge37" class="edge">
<title>36&#45;&gt;37</title>
<path fill="none" stroke="#000000" d="M1662.2689,-205.5528C1662.2689,-197.22 1662.2689,-188.2845 1662.2689,-179.6137"/>
<polygon fill="#000000" stroke="#000000" points="1665.769,-179.6084 1662.2689,-169.6085 1658.769,-179.6085 1665.769,-179.6084"/>
</g>
<!-- 40 -->
<g id="node41" class="node">
<title>40</title>
<polygon fill="none" stroke="#000000" points="1903.5898,-169.7003 1798.948,-169.7003 1798.948,-94.2997 1903.5898,-94.2997 1903.5898,-169.7003"/>
<text text-anchor="middle" x="1851.2689" y="-153" font-family="Helvetica,sans-Serif" font-size="14.00" fill="#000000">Age &lt;= 41.5</text>
<text text-anchor="middle" x="1851.2689" y="-136.2" font-family="Helvetica,sans-Serif" font-size="14.00" fill="#000000">gini = 0.113</text>
<text text-anchor="middle" x="1851.2689" y="-119.4" font-family="Helvetica,sans-Serif" font-size="14.00" fill="#000000">samples = 83</text>
<text text-anchor="middle" x="1851.2689" y="-102.6" font-family="Helvetica,sans-Serif" font-size="14.00" fill="#000000">value = [78, 5]</text>
</g>
<!-- 36&#45;&gt;40 -->
<g id="edge40" class="edge">
<title>36&#45;&gt;40</title>
<path fill="none" stroke="#000000" d="M1722.3294,-207.8628C1743.9895,-195.1189 1768.4462,-180.7296 1790.1923,-167.935"/>
<polygon fill="#000000" stroke="#000000" points="1792.1679,-170.8336 1799.0119,-162.7459 1788.6182,-164.8003 1792.1679,-170.8336"/>
</g>
<!-- 38 -->
<g id="node39" class="node">
<title>38</title>
<polygon fill="none" stroke="#000000" points="1663.1546,-58.6014 1543.3832,-58.6014 1543.3832,.2014 1663.1546,.2014 1663.1546,-58.6014"/>
<text text-anchor="middle" x="1603.2689" y="-41.8" font-family="Helvetica,sans-Serif" font-size="14.00" fill="#000000">gini = 0.191</text>
<text text-anchor="middle" x="1603.2689" y="-25" font-family="Helvetica,sans-Serif" font-size="14.00" fill="#000000">samples = 243</text>
<text text-anchor="middle" x="1603.2689" y="-8.2" font-family="Helvetica,sans-Serif" font-size="14.00" fill="#000000">value = [217, 26]</text>
</g>
<!-- 37&#45;&gt;38 -->
<g id="edge38" class="edge">
<title>37&#45;&gt;38</title>
<path fill="none" stroke="#000000" d="M1640.6345,-94.3048C1635.6063,-85.5437 1630.2491,-76.2096 1625.2079,-67.4259"/>
<polygon fill="#000000" stroke="#000000" points="1628.1091,-65.4495 1620.0957,-58.5186 1622.0379,-68.9339 1628.1091,-65.4495"/>
</g>
<!-- 39 -->
<g id="node40" class="node">
<title>39</title>
<polygon fill="none" stroke="#000000" points="1780.9056,-58.6014 1681.6322,-58.6014 1681.6322,.2014 1780.9056,.2014 1780.9056,-58.6014"/>
<text text-anchor="middle" x="1731.2689" y="-41.8" font-family="Helvetica,sans-Serif" font-size="14.00" fill="#000000">gini = 0.496</text>
<text text-anchor="middle" x="1731.2689" y="-25" font-family="Helvetica,sans-Serif" font-size="14.00" fill="#000000">samples = 11</text>
<text text-anchor="middle" x="1731.2689" y="-8.2" font-family="Helvetica,sans-Serif" font-size="14.00" fill="#000000">value = [6, 5]</text>
</g>
<!-- 37&#45;&gt;39 -->
<g id="edge39" class="edge">
<title>37&#45;&gt;39</title>
<path fill="none" stroke="#000000" d="M1687.5702,-94.3048C1693.5744,-85.3593 1699.9797,-75.8163 1705.9833,-66.8718"/>
<polygon fill="#000000" stroke="#000000" points="1708.923,-68.7723 1711.5901,-58.5186 1703.1109,-64.8711 1708.923,-68.7723"/>
</g>
<!-- 41 -->
<g id="node42" class="node">
<title>41</title>
<polygon fill="none" stroke="#000000" points="1903.5898,-58.6014 1798.948,-58.6014 1798.948,.2014 1903.5898,.2014 1903.5898,-58.6014"/>
<text text-anchor="middle" x="1851.2689" y="-41.8" font-family="Helvetica,sans-Serif" font-size="14.00" fill="#000000">gini = 0.044</text>
<text text-anchor="middle" x="1851.2689" y="-25" font-family="Helvetica,sans-Serif" font-size="14.00" fill="#000000">samples = 44</text>
<text text-anchor="middle" x="1851.2689" y="-8.2" font-family="Helvetica,sans-Serif" font-size="14.00" fill="#000000">value = [43, 1]</text>
</g>
<!-- 40&#45;&gt;41 -->
<g id="edge41" class="edge">
<title>40&#45;&gt;41</title>
<path fill="none" stroke="#000000" d="M1851.2689,-94.3048C1851.2689,-85.9126 1851.2689,-76.9946 1851.2689,-68.5382"/>
<polygon fill="#000000" stroke="#000000" points="1854.769,-68.5186 1851.2689,-58.5186 1847.769,-68.5187 1854.769,-68.5186"/>
</g>
<!-- 42 -->
<g id="node43" class="node">
<title>42</title>
<polygon fill="none" stroke="#000000" points="2025.5898,-58.6014 1920.948,-58.6014 1920.948,.2014 2025.5898,.2014 2025.5898,-58.6014"/>
<text text-anchor="middle" x="1973.2689" y="-41.8" font-family="Helvetica,sans-Serif" font-size="14.00" fill="#000000">gini = 0.184</text>
<text text-anchor="middle" x="1973.2689" y="-25" font-family="Helvetica,sans-Serif" font-size="14.00" fill="#000000">samples = 39</text>
<text text-anchor="middle" x="1973.2689" y="-8.2" font-family="Helvetica,sans-Serif" font-size="14.00" fill="#000000">value = [35, 4]</text>
</g>
<!-- 40&#45;&gt;42 -->
<g id="edge42" class="edge">
<title>40&#45;&gt;42</title>
<path fill="none" stroke="#000000" d="M1896.0044,-94.3048C1907.2774,-84.806 1919.3498,-74.6335 1930.5224,-65.2192"/>
<polygon fill="#000000" stroke="#000000" points="1933.0825,-67.6389 1938.4744,-58.5186 1928.5719,-62.2858 1933.0825,-67.6389"/>
</g>
</g>
</svg>
